<mxfile host="app.diagrams.net" modified="2022-03-01T05:56:42.648Z" agent="5.0 (Windows NT 10.0; Win64; x64) AppleWebKit/537.36 (KHTML, like Gecko) Chrome/98.0.4758.102 Safari/537.36" etag="4ApRFP8ddGWH2EKKn_r_" version="16.6.4" type="github">
  <diagram id="fRchNuAHtvqRvPL8oEPl" name="Page-1">
    <mxGraphModel dx="1999" dy="1162" grid="1" gridSize="10" guides="1" tooltips="1" connect="1" arrows="1" fold="1" page="1" pageScale="1" pageWidth="827" pageHeight="1169" math="0" shadow="0">
      <root>
        <mxCell id="0" />
        <mxCell id="1" parent="0" />
        <mxCell id="t-AwpBOO4YXLA28Y_hV2-1" value="" style="shape=tape;whiteSpace=wrap;html=1;" vertex="1" parent="1">
          <mxGeometry x="90" y="210" width="200" height="200" as="geometry" />
        </mxCell>
        <mxCell id="t-AwpBOO4YXLA28Y_hV2-4" value="" style="edgeStyle=orthogonalEdgeStyle;rounded=0;orthogonalLoop=1;jettySize=auto;html=1;" edge="1" parent="1" source="t-AwpBOO4YXLA28Y_hV2-2" target="t-AwpBOO4YXLA28Y_hV2-3">
          <mxGeometry relative="1" as="geometry" />
        </mxCell>
        <mxCell id="t-AwpBOO4YXLA28Y_hV2-2" value="" style="whiteSpace=wrap;html=1;aspect=fixed;" vertex="1" parent="1">
          <mxGeometry x="400" y="420" width="80" height="80" as="geometry" />
        </mxCell>
        <mxCell id="t-AwpBOO4YXLA28Y_hV2-6" value="" style="edgeStyle=orthogonalEdgeStyle;rounded=0;orthogonalLoop=1;jettySize=auto;html=1;" edge="1" parent="1" source="t-AwpBOO4YXLA28Y_hV2-3" target="t-AwpBOO4YXLA28Y_hV2-5">
          <mxGeometry relative="1" as="geometry" />
        </mxCell>
        <mxCell id="t-AwpBOO4YXLA28Y_hV2-3" value="" style="ellipse;whiteSpace=wrap;html=1;" vertex="1" parent="1">
          <mxGeometry x="380" y="620" width="120" height="60" as="geometry" />
        </mxCell>
        <mxCell id="t-AwpBOO4YXLA28Y_hV2-5" value="" style="shape=parallelogram;perimeter=parallelogramPerimeter;whiteSpace=wrap;html=1;fixedSize=1;" vertex="1" parent="1">
          <mxGeometry x="570" y="440" width="120" height="60" as="geometry" />
        </mxCell>
        <mxCell id="t-AwpBOO4YXLA28Y_hV2-7" value="" style="shape=flexArrow;endArrow=classic;html=1;rounded=0;exitX=0.318;exitY=0.97;exitDx=0;exitDy=0;exitPerimeter=0;" edge="1" parent="1" source="t-AwpBOO4YXLA28Y_hV2-1" target="t-AwpBOO4YXLA28Y_hV2-2">
          <mxGeometry width="50" height="50" relative="1" as="geometry">
            <mxPoint x="430" y="630" as="sourcePoint" />
            <mxPoint x="480" y="580" as="targetPoint" />
          </mxGeometry>
        </mxCell>
      </root>
    </mxGraphModel>
  </diagram>
</mxfile>
